<?xml version="1.0" encoding="utf-8"?>
<!-- Generator: Adobe Illustrator 18.1.0, SVG Export Plug-In . SVG Version: 6.00 Build 0)  -->
<!DOCTYPE svg PUBLIC "-//W3C//DTD SVG 1.1//EN" "http://www.w3.org/Graphics/SVG/1.1/DTD/svg11.dtd">
<svg version="1.1" id="Layer_1" xmlns="http://www.w3.org/2000/svg" xmlns:xlink="http://www.w3.org/1999/xlink" x="0px" y="0px"
	 viewBox="0 0 53.9 75.4" enable-background="new 0 0 53.9 75.4" xml:space="preserve">
<path fill="#B61918" d="M27,0C12.1,0,0,12.1,0,27c0,4.1,0.9,8,2.7,11.7l22.5,35.7c0.3,0.7,1,1.1,1.8,1.1c0.7,0,1.4-0.4,1.8-1.1
	l22.6-35.8C53,34.9,53.9,31,53.9,27C53.9,12.1,41.8,0,27,0z M27,36.6c-5.5,0-9.9-4.5-9.9-9.9c0-5.5,4.5-9.9,9.9-9.9
	c5.5,0,9.9,4.5,9.9,9.9C36.9,32.2,32.5,36.6,27,36.6z"/>
</svg>
